<svg xmlns="http://www.w3.org/2000/svg" xmlns:xlink="http://www.w3.org/1999/xlink" width="30" height="30" viewBox="0 0 30 30">
  <defs>
    <clipPath id="clip-path">
      <path id="Path_377" data-name="Path 377" d="M30-497a15,15,0,0,1-15,15A15,15,0,0,1,0-497a15,15,0,0,1,15-15,15,15,0,0,1,15,15Z" transform="translate(0 512)" fill="none"/>
    </clipPath>
    <clipPath id="clip-path-2">
      <path id="Path_379" data-name="Path 379" d="M45.091-480A13.093,13.093,0,0,0,32-466.908a13.091,13.091,0,0,0,13.092,13.089,13.089,13.089,0,0,0,13.089-13.089A13.091,13.091,0,0,0,45.091-480Zm.868,1.444c3.408,0,3.218,3.6,3.2,5.535a4.706,4.706,0,0,0,1.4,3.03,11.206,11.206,0,0,1,1.96,3.138,4.872,4.872,0,0,1,.158,3.331,1.124,1.124,0,0,1,.341.209h0a1.656,1.656,0,0,1,.446.945,2.045,2.045,0,0,0,.3.831v0a1.864,1.864,0,0,1,.646,1.244,1.012,1.012,0,0,1-.587.769,7.322,7.322,0,0,0-2.145,1.356l-.11-.09.11.092a3.076,3.076,0,0,1-2.032,1.176,1.693,1.693,0,0,1-1.7-.967s0,0,0,0a1.227,1.227,0,0,1-.108-.281c-.905.05-1.69-.224-2.32-.174-.928.051-1.509.277-2.037.279a1.527,1.527,0,0,1-1.09.85,3.552,3.552,0,0,1-2.358-.435v0a8.923,8.923,0,0,0-2.5-.527,1.132,1.132,0,0,1-.846-.519,1.687,1.687,0,0,1,.094-1.336,2.186,2.186,0,0,0-.035-.875A1.611,1.611,0,0,1,36.823-462v0a1.29,1.29,0,0,1,.78-.609,1.858,1.858,0,0,0,.716-.349c.192-.2.366-.506.6-.756.031-.033.062-.066.1-.1a4.868,4.868,0,0,1,.259-2.248,13.467,13.467,0,0,1,2.45-4.074,4.868,4.868,0,0,0,.947-2.725c.057-1.347-.954-5.371,2.854-5.678.151-.012.294-.018.433-.018Zm.453,2.984a.85.85,0,0,0-.532.191,1.224,1.224,0,0,0-.389.508,1.6,1.6,0,0,0-.136.69v.02a1.884,1.884,0,0,0,.015.2,2.279,2.279,0,0,1,.488.182,1.112,1.112,0,0,1-.015-.215.081.081,0,0,1,0-.015,1.046,1.046,0,0,1,.077-.378.67.67,0,0,1,.189-.27.35.35,0,0,1,.233-.092h.013a.342.342,0,0,1,.24.11.674.674,0,0,1,.169.283,1.045,1.045,0,0,1,.055.365c0,.006,0,.01,0,.015a1.043,1.043,0,0,1-.079.376.736.736,0,0,1-.114.2c.122.043.27.1.461.178.028.011.056.023.081.035a1.34,1.34,0,0,0,.193-.323,1.624,1.624,0,0,0,.138-.69.076.076,0,0,1,0-.02,1.6,1.6,0,0,0-.149-.668,1.208,1.208,0,0,0-.4-.5.856.856,0,0,0-.527-.18h-.011Zm-2.67.211a.555.555,0,0,0-.376.182,1.03,1.03,0,0,0-.257.45,1.656,1.656,0,0,0-.073.6v0a1.653,1.653,0,0,0,.138.589,1.089,1.089,0,0,0,.25.369l.119-.088c.052-.038.081-.061.145-.11l-.031-.024a.562.562,0,0,1-.147-.217.976.976,0,0,1-.075-.3v-.013a.962.962,0,0,1,.02-.316.578.578,0,0,1,.108-.242.243.243,0,0,1,.171-.1h.018a.24.24,0,0,1,.165.068.567.567,0,0,1,.149.217,1.011,1.011,0,0,1,.075.3.055.055,0,0,0,0,.013.961.961,0,0,1,0,.231,1.629,1.629,0,0,1,.367-.18l.075-.024a1.772,1.772,0,0,0,0-.264,1.632,1.632,0,0,0-.136-.589,1.055,1.055,0,0,0-.31-.42.556.556,0,0,0-.36-.138h-.033Zm1.235,1.514a1.292,1.292,0,0,0-.42.073,2.07,2.07,0,0,0-.756.53,1.8,1.8,0,0,1-.16.123c-.093.068-.234.17-.435.321a.44.44,0,0,0-.176.514,1.245,1.245,0,0,0,.622.644v0a4.431,4.431,0,0,1,.552.448,1.124,1.124,0,0,0,.694.27,1.562,1.562,0,0,0,.91-.233,4.149,4.149,0,0,1,.7-.393v0a1.471,1.471,0,0,0,.958-.76.5.5,0,0,0-.011-.418.8.8,0,0,0-.433-.347,6.721,6.721,0,0,1-.954-.393,2.009,2.009,0,0,0-1.09-.376l0,0Zm2.087,1.237.009.16a1.039,1.039,0,0,0-.352.143c-.151.084-.328.2-.523.308a2.77,2.77,0,0,1-1.34.453,1.85,1.85,0,0,1-1.151-.444c-.139-.11-.254-.219-.338-.3-.042-.04-.078-.072-.1-.092a.137.137,0,0,0-.033-.018s0,0,.007-.042l0-.123a.175.175,0,0,1,.121.053c.035.027.073.063.116.1.087.081.2.186.327.29a1.688,1.688,0,0,0,1.05.411,2.65,2.65,0,0,0,1.259-.433c.191-.11.368-.222.525-.31a1.055,1.055,0,0,1,.422-.16Zm.435.585a1.8,1.8,0,0,1-.94.631,4.624,4.624,0,0,0-.668.38,1.747,1.747,0,0,1-1,.257,1.313,1.313,0,0,1-.787-.308,4.85,4.85,0,0,0-.532-.435c-.067-.038-.216-.14-.259-.171-.085,1.594-1.148,3.6-1.657,4.748a7.281,7.281,0,0,0-.584,2.591c-.918-1.224-.247-2.794.112-3.474.4-.743.462-.946.365-.875A8.8,8.8,0,0,0,40.4-466.19a2.828,2.828,0,0,0,.011,1.483,2.287,2.287,0,0,0,1.037,1.259,5.694,5.694,0,0,1,1.611,1.371,1.187,1.187,0,0,1,.312,1.05.52.52,0,0,1-.286.294,1,1,0,0,1-.415.079c.083.1.167.21.248.316.128.167.25.337.358.508a4.158,4.158,0,0,0,4.823-.294,6.555,6.555,0,0,0,.288-1.222,9.244,9.244,0,0,1,.185-1.683,1.561,1.561,0,0,1,.716-1.068,1.2,1.2,0,0,1,.185-.083c0-.04.01-.08.018-.119.111-.737.77-.772,1.6-.409.8.36,1.1.674.96,1.1h.015c.052,0,.106,0,.16,0,.166-.538-.178-.933-1.11-1.387-.063-.03-.124-.056-.185-.081a3.178,3.178,0,0,0-.018-1.5,5.183,5.183,0,0,0-1.485-2.485c-.1,0-.088.083.11.275a3.675,3.675,0,0,1,.982,3.575,1.678,1.678,0,0,0-.461-.059,9.4,9.4,0,0,0-.993-2.722,21.756,21.756,0,0,1-1.564-4.032Zm2.654,7.33a.439.439,0,0,0-.468.442c-.068.453.135,1.053.552,1.16a1.278,1.278,0,0,0,1.143-.576c.165-.351-.024-.591-.628-.87a1.518,1.518,0,0,0-.6-.156Zm-.686.828-.042.022a1.266,1.266,0,0,0-.576.888,9.178,9.178,0,0,0-.176,1.63v0a10.169,10.169,0,0,1-.417,1.71,2.313,2.313,0,0,0-.051,1.525l0,0v0a1.376,1.376,0,0,0,1.419.813,2.814,2.814,0,0,0,1.837-1.077,7.068,7.068,0,0,1,2.215-1.417c.284-.171.438-.328.45-.54s-.132-.545-.576-1.037v0a2.093,2.093,0,0,1-.369-.958,1.471,1.471,0,0,0-.352-.791h0a.991.991,0,0,0-.762-.224l-.189.007a1.97,1.97,0,0,1-1.617.688,1.294,1.294,0,0,1-.8-1.242Zm-9.745.042a.786.786,0,0,0-.6.3c-.2.215-.373.517-.6.758v0h0a2,2,0,0,1-.824.417.971.971,0,0,0-.622.475l0,0a1.423,1.423,0,0,0-.035.844,2.212,2.212,0,0,1,.022,1.009v.007a1.469,1.469,0,0,0-.112,1.11.859.859,0,0,0,.65.367,8.5,8.5,0,0,1,2.575.556,3.3,3.3,0,0,0,2.16.413,1.2,1.2,0,0,0,1.013-1.171v0a2.418,2.418,0,0,0-.657-1.424,10.326,10.326,0,0,1-1.072-1.472v0a9.133,9.133,0,0,0-.826-1.5,1.474,1.474,0,0,0-.918-.674.985.985,0,0,0-.143-.013h-.009Z" transform="translate(-32 480)" fill="none"/>
    </clipPath>
  </defs>
  <g id="Group_842" data-name="Group 842" transform="translate(0 512)">
    <g id="Group_684" data-name="Group 684" transform="translate(0 -512)" clip-path="url(#clip-path)">
      <path id="Path_376" data-name="Path 376" d="M-5-517H25.586v30.586H-5Z" transform="translate(4.707 516.707)"/>
    </g>
    <g id="Group_685" data-name="Group 685" transform="translate(1.91 -510.09)" clip-path="url(#clip-path-2)">
      <path id="Path_378" data-name="Path 378" d="M27-485H53.765v26.765H27Z" transform="translate(-27.292 484.708)" fill="#fff"/>
    </g>
  </g>
</svg>
