<?xml version="1.0" encoding="UTF-8"?>
<svg width="80px" height="80px" viewBox="0 0 80 80" version="1.1" xmlns="http://www.w3.org/2000/svg" xmlns:xlink="http://www.w3.org/1999/xlink">
    <!-- Generator: Sketch 52.2 (67145) - http://www.bohemiancoding.com/sketch -->
    <title>icon-elasticstack-bb</title>
    <desc>Created with Sketch.</desc>
    <g id="icon-elasticstack-bb" stroke="none" stroke-width="1" fill="none" fill-rule="evenodd">
        <g id="Group" transform="translate(15.000000, 15.000000)">
            <path d="M50,14.0625 L50,3.90625 C50,1.7484375 48.2515625,0 46.09375,0 L3.90625,0 C1.7484375,0 0,1.7484375 0,3.90625 L0,14.0625 L50,14.0625 Z" id="Fill-1" fill="#F04E98"></path>
            <polygon id="Fill-3" fill="#00BFB3" points="0 31.25 50 31.25 50 18.75 0 18.75"></polygon>
            <path d="M22.65625,35.9375 L0,35.9375 L0,46.09375 C0,48.2515625 1.7484375,50 3.90625,50 L22.65625,50 L22.65625,35.9375 Z" id="Fill-5" fill="#0077CC"></path>
            <path d="M27.34375,35.9375 L27.34375,50 L46.09375,50 C48.2515625,50 50,48.2515625 50,46.09375 L50,35.9375 L27.34375,35.9375 Z" id="Fill-6" fill="#FEC514"></path>
        </g>
    </g>
</svg>